<?xml version="1.0" ?><svg viewBox="0 0 63.79 63.79" xmlns="http://www.w3.org/2000/svg"><defs><style>.cls-1{fill:#6a87c4;stroke-miterlimit:10;stroke-width:2px;}.cls-1,.cls-2,.cls-4{stroke:#231f20;}.cls-2,.cls-4{fill:none;stroke-linecap:round;stroke-linejoin:round;}.cls-2{stroke-width:2px;}.cls-3{fill:#beddf4;}.cls-4{stroke-width:2px;}</style></defs><title/><g data-name="Cloud Website" id="Cloud_Website"><circle class="cls-1" cx="32.11" cy="44.11" r="12.11"/><polyline class="cls-2" points="20.99 39.3 27.61 39.3 36.59 39.3 43.22 39.3"/><polyline class="cls-2" points="21.05 49.04 27.62 49.04 36.6 49.04 43.16 49.04"/><path class="cls-2" d="M29.56,32.27a31.47,31.47,0,0,0-1.94,7,30.66,30.66,0,0,0-.38,4.87A32,32,0,0,0,27.62,49a30.65,30.65,0,0,0,1.89,6.9"/><path class="cls-2" d="M34.71,55.94A31.82,31.82,0,0,0,37,44.17a30.92,30.92,0,0,0-.39-4.87,30.18,30.18,0,0,0-2-7"/><path class="cls-3" d="M45.89,17.44c0-7.37-6.26-13.33-14-13.33s-14,6-14,13.33A14.31,14.31,0,0,0,8,21.34a12.91,12.91,0,0,0-4.1,9.43,14.28,14.28,0,0,0,4,9.34,14.3,14.3,0,0,0,8,4h1c0-8.51,6.78-15.5,15-15.5a15.34,15.34,0,0,1,15,15.5h1a14.46,14.46,0,0,0,7.91-3.9,13.42,13.42,0,0,0,3.77-6.58,12.86,12.86,0,0,0,.32-2.86C59.89,23.41,53.63,17.44,45.89,17.44Z"/><path class="cls-4" d="M15.89,44.11a13.88,13.88,0,0,1-12-13.34A12.91,12.91,0,0,1,8,21.34a14.31,14.31,0,0,1,9.9-3.9c0-7.37,6.27-13.33,14-13.33s14,6,14,13.33c7.74,0,14,6,14,13.33a12.86,12.86,0,0,1-.32,2.86,13.42,13.42,0,0,1-3.77,6.58,14.46,14.46,0,0,1-7.91,3.9"/></g></svg>